<svg xmlns="http://www.w3.org/2000/svg" width="15" height="18" viewBox="0 0 15 18"><defs><clipPath id="ndhja"><path fill="#fff" d="M7.42 9c2.485 0 4.5-2 4.5-4.5S9.905 0 7.42 0s-4.5 2-4.5 4.5S4.935 9 7.42 9z"/></clipPath><clipPath id="ndhjb"><path fill="#fff" d="M14.85 18v-5.465a1 1 0 0 0-.35-.759S12.428 10 7.425 10C2.42 10 .349 11.776.349 11.776a1 1 0 0 0-.349.76V18z"/></clipPath></defs><g><g><g><path fill="#fff" d="M7.42 9c2.485 0 4.5-2 4.5-4.5S9.905 0 7.42 0s-4.5 2-4.5 4.5S4.935 9 7.42 9z"/><path fill="none" stroke="#545554" stroke-miterlimit="20" stroke-width="2" d="M7.42 9c2.485 0 4.5-2 4.5-4.5S9.905 0 7.42 0s-4.5 2-4.5 4.5S4.935 9 7.42 9z" clip-path="url(&quot;#ndhja&quot;)"/></g><g><path fill="#fff" d="M14.85 18v-5.465a1 1 0 0 0-.35-.759S12.428 10 7.425 10C2.42 10 .349 11.776.349 11.776a1 1 0 0 0-.349.76V18z"/><path fill="none" stroke="#545554" stroke-miterlimit="20" stroke-width="2" d="M14.85 18v0-5.465a1 1 0 0 0-.35-.759S12.428 10 7.425 10C2.42 10 .349 11.776.349 11.776a1 1 0 0 0-.349.76V18z" clip-path="url(&quot;#ndhjb&quot;)"/></g></g></g></svg>